<svg xmlns="http://www.w3.org/2000/svg" viewBox="0 0 512.001 512.001"><path d="M298.174 380.978c-14.211.66-49.111 9.569-60.565 18.008l-24.7 18.8-97.485-127.57c14.383-10.991 22.836-21.32 23.911-25.388l46.233-124.755c5.924-15.601 14.148-22.879 27.588-21.082 13.44 1.797 22.878 14.148 21.082 27.588l-7.129 49.134c-.647 4.461 4.449 7.455 8.031 4.718L389.405 82.579c10.648-8.137 26.045-6.68 34.454 3.755 8.696 10.792 6.745 26.561-4.2 34.925l22.759-17.392c10.774-8.233 26.182-6.173 34.415 4.601 8.233 10.774 6.173 26.182-4.601 34.415l-27.873 21.299c10.774-8.233 26.182-6.173 34.415 4.601 8.233 10.774 6.173 26.182-4.601 34.415l-26.969 20.609c10.774-8.233 26.182-6.173 34.415 4.601 8.233 10.774 6.173 26.182-4.601 34.415l-139.19 103.985a72.016 72.016 0 0 1-39.654 14.17z" fill="#f4c892"/><g fill="#e2b583"><path d="M481.619 228.407a24.42 24.42 0 0 0-10.052-7.752c1.075 8.403-2.225 17.133-9.44 22.647l-65.898 49.294c-10.828 8.099-12.97 23.476-4.769 34.227l85.558-64c10.774-8.234 12.834-23.643 4.601-34.416zM447.204 223.806l26.953-20.596c10.777-8.235 12.843-23.644 4.617-34.427a24.431 24.431 0 0 0-10.075-7.757c1.063 8.393-2.238 17.108-9.444 22.614l-26.969 20.609-65.359 49.921c-10.798 8.247-12.87 23.685-4.629 34.488l84.906-64.852zM472.234 142.881c10.772-8.233 12.832-23.64 4.599-34.414a24.422 24.422 0 0 0-10.083-7.76c1.059 8.389-2.241 17.1-9.444 22.605l-120.193 91.82c-10.804 8.254-12.877 23.701-4.631 34.511l139.752-106.762z"/></g><path d="M419.659 121.258c10.945-8.364 12.897-24.132 4.2-34.925a23.857 23.857 0 0 0-9.66-7.167c1.031 8.367-2.279 17.044-9.461 22.532l-97.441 74.435c-10.799 8.249-12.871 23.689-4.629 34.493l116.991-89.368z" fill="#efcebd"/><path d="M446.152 314.757c-8.086 11.705-22.148 44.866-22.376 59.091l-.013 31.041-160.553.242c-.027-18.101-3.122-31.085-5.706-34.406l-71.223-112.376c-9.602-9.573-9.626-25.119-.052-34.721 9.573-9.602 25.118-9.626 34.721-.052l34.765 35.445c3.156 3.218 8.626.979 8.62-3.529l-.268-194.131c-.02-13.401 10.469-24.767 23.865-25.132 13.855-.378 25.216 10.73 25.237 24.505l-.043-28.643c-.02-13.559 10.955-24.568 24.514-24.588 13.559-.02 24.568 10.955 24.589 24.514l.053 35.079c-.02-13.559 10.955-24.568 24.514-24.588 13.559-.02 24.568 10.955 24.588 24.514l.051 33.942c-.021-13.559 10.955-24.568 24.514-24.588 13.559-.02 24.568 10.955 24.588 24.514l-1.628 173.736a71.997 71.997 0 0 1-12.757 40.131z" fill="#fed9a8"/><g fill="#f4c892"><path d="M435.948 76.375a24.431 24.431 0 0 0-12.175 3.251c7.365 4.229 12.334 12.161 12.348 21.263l-.722 82.428c-.118 13.449 10.752 24.414 24.202 24.414l.935-106.843c-.02-13.558-11.028-24.533-24.588-24.513zM411.434 100.964l-.051-33.942c-.021-13.559-11.029-24.535-24.588-24.514a24.431 24.431 0 0 0-12.285 3.32c7.299 4.246 12.215 12.141 12.228 21.195l.051 33.942.106 82.669c.017 13.355 10.848 24.172 24.202 24.172h.473l-.136-106.842zM362.227 32.014c-.021-13.559-11.03-24.533-24.588-24.512a24.436 24.436 0 0 0-12.298 3.327c7.291 4.247 12.201 12.138 12.215 21.185l.207 151.695c.018 13.354 10.849 24.169 24.202 24.169h.502l-.24-175.864zM313.167 60.734c-.021-13.775-11.382-24.883-25.237-24.505a23.855 23.855 0 0 0-11.566 3.348c7.259 4.256 12.139 12.134 12.153 21.157l.165 123.049c.018 13.354 10.848 24.17 24.202 24.17h.479l-.196-147.219z"/></g><path d="M88.019 305.566l101.833 133.261a6.634 6.634 0 0 0 9.301 1.243l29.273-22.37a6.634 6.634 0 0 0 1.243-9.301L127.837 275.138a6.634 6.634 0 0 0-9.301-1.243l-29.273 22.37a6.634 6.634 0 0 0-1.244 9.301z" fill="#fff"/><path d="M199.153 440.07l29.273-22.37a6.634 6.634 0 0 0 1.243-9.301l-47.915-62.702-41.374 28.391 49.471 64.739a6.637 6.637 0 0 0 9.302 1.243z" fill="#f7f7f7"/><path d="M26.816 337.875l115.785 151.518a7.141 7.141 0 0 0 10.318 1.088l54.952-47.066a7.14 7.14 0 0 0 1.029-9.758L98.01 288.545a7.141 7.141 0 0 0-9.686-1.571l-59.848 40.66a7.14 7.14 0 0 0-1.66 10.241z" fill="#7ab8dd"/><path d="M208.899 433.657l-31.72-41.51a7.218 7.218 0 0 1-1.495 9.189l-55.566 47.592a7.217 7.217 0 0 1-7.568 1.14l30.051 39.325a7.14 7.14 0 0 0 10.318 1.088l54.952-47.066a7.14 7.14 0 0 0 1.028-9.758z" fill="#6fa9d4"/><path d="M258.814 436.233l167.715-.253a6.637 6.637 0 0 0 6.626-6.646l-.056-36.842a6.637 6.637 0 0 0-6.646-6.626l-167.715.253a6.637 6.637 0 0 0-6.626 6.646l.056 36.842a6.635 6.635 0 0 0 6.646 6.626z" fill="#fff"/><path d="M426.454 385.867l-83.69.126v50.113l83.766-.127a6.634 6.634 0 0 0 6.625-6.646l-.056-36.842a6.635 6.635 0 0 0-6.645-6.624z" fill="#f7f7f7"/><path d="M247.428 504.498l190.693-.288a7.14 7.14 0 0 0 7.118-7.549l-4.141-72.235a7.139 7.139 0 0 0-7.139-6.731l-182.63.276a7.14 7.14 0 0 0-7.119 6.753l-3.922 72.247a7.14 7.14 0 0 0 7.14 7.527z" fill="#7ab8dd"/><path d="M445.239 496.661l-4.141-72.235a7.139 7.139 0 0 0-7.139-6.731l-55.403.084a7.135 7.135 0 0 1 6.089 6.648l4.141 72.235a7.14 7.14 0 0 1-7.117 7.549l-135.286.204c.342.05.69.084 1.046.084l190.693-.288a7.142 7.142 0 0 0 7.117-7.55z" fill="#6fa9d4"/><path d="M395.731 224.841h-68.017c-15.135 0-27.398 12.28-27.378 27.415l.004 3.181c.017 10.983-4.232 21.296-11.963 29.038-7.659 7.672-18.269 12.071-29.111 12.071l-.238-.001c-2.565-.015-4.153 2.77-2.78 4.936l31.351 49.465.055.082c3.657 5.535 9.73 8.993 16.364 8.993h70.149c8.646 0 16.21-5.69 18.747-13.955 6.353-20.696 17.118-42.377 23.612-51.775a35.821 35.821 0 0 0 6.376-20.004l.204-21.812c.144-15.219-12.155-27.634-27.375-27.634z" fill="#ffe0bb"/><path d="M487.579 223.852c-3.754-4.912-8.693-8.514-14.234-10.581l5.383-4.114c6.803-5.198 11.174-12.735 12.308-21.22 1.135-8.486-1.104-16.907-6.302-23.709a31.935 31.935 0 0 0-14.251-10.568l6.304-4.817c6.803-5.198 11.174-12.735 12.308-21.221 1.135-8.486-1.104-16.907-6.302-23.709-4.06-5.313-9.542-9.13-15.788-11.092-1.421-5.475-4.278-10.494-8.389-14.593-6.052-6.033-14.086-9.354-22.63-9.354h-.05a31.888 31.888 0 0 0-17.043 4.946l-.01-6.81c-.013-8.561-3.359-16.606-9.423-22.65-6.051-6.033-14.085-9.355-22.629-9.355h-.05c-6.126.01-11.989 1.726-17.043 4.923l-.012-7.924c-.013-8.561-3.359-16.606-9.422-22.65C354.254 3.321 346.22 0 337.678 0h-.051c-8.561.013-16.606 3.359-22.65 9.423-6.045 6.063-9.367 14.117-9.354 22.68l.002 1.486c-5.301-3.335-11.472-5.041-17.897-4.857-17.211.469-31.189 15.113-31.163 32.641l.156 113.134-21.316 16.284 6.27-43.217c2.341-17.516-10.005-33.674-27.523-36.016-24.521-3.277-32.859 18.648-35.616 25.911l-12.98 35.025a7.501 7.501 0 0 0 4.427 9.641 7.497 7.497 0 0 0 9.641-4.427l12.96-34.969c6.312-16.621 13.419-17.132 19.581-16.31 9.318 1.246 15.886 9.841 14.652 19.075l-7.129 49.134c-.736 5.064 1.64 10.011 6.052 12.603s9.892 2.258 13.956-.847l17.051-13.026.077 56.073-30.578-31.176c-12.515-12.477-32.85-12.449-45.33.069a33.27 33.27 0 0 0-1.114 1.174l-.029.033c-5.318 5.905-8.223 13.466-8.211 21.471.011 7.161 2.358 13.959 6.673 19.529l.046.062c.287.369.585.731.889 1.089l.124.151c.337.391.684.776 1.042 1.153l.026.029 70.806 111.717c.109.173.227.342.35.505.011.018.025.047.037.068.02.036.041.073.064.118.027.054.058.119.089.187l.032.069a8.97 8.97 0 0 1 .14.326c.043.105.088.217.135.341l.018.049c.197.519.426 1.206.674 2.06l.077.267a48.414 48.414 0 0 1 .288 1.082 14.184 14.184 0 0 0-6.793 6.273c-4.964 2.022-9.702 4.344-13.118 6.861a2.855 2.855 0 0 0-.094.07l-3.611 2.748-77.755-101.753-12.151-15.901c3.059-3.581 5.873-7.54 6.913-10.929l20.813-56.162a7.502 7.502 0 0 0-14.068-5.214l-20.907 56.414a7.55 7.55 0 0 0-.19.586c-.192.48-.985 1.852-2.692 4.005-4.765-2.635-10.842-2.392-15.439 1.122l-15.348 11.729c-4.553-2.163-10.087-1.908-14.523 1.105L24.261 321.43a14.696 14.696 0 0 0-6.225 9.768 14.701 14.701 0 0 0 2.82 11.233L136.64 493.95a14.703 14.703 0 0 0 10.099 5.67 14.714 14.714 0 0 0 11.06-3.441l54.952-47.066c4.073-3.489 5.772-8.761 4.881-13.722l15.349-11.729a14.047 14.047 0 0 0 5.43-9.36 14.07 14.07 0 0 0-.531-6.095l4.223-3.214c.7-.512 1.547-1.045 2.524-1.594l.013 8.698c-4.478 2.311-7.629 6.866-7.921 12.222l-3.922 72.246a14.7 14.7 0 0 0 3.997 10.87 14.7 14.7 0 0 0 10.624 4.566H247.44l190.693-.288a14.704 14.704 0 0 0 10.63-4.598 14.7 14.7 0 0 0 3.964-10.881l-4.141-72.235c-.307-5.354-3.471-9.9-7.957-12.198l-.029-19.318a14.044 14.044 0 0 0-4.155-9.991 14.073 14.073 0 0 0-5.17-3.271l.002-5.305c.095-4.959 2.472-13.964 6.528-24.723a7.5 7.5 0 0 0-4.373-9.665 7.499 7.499 0 0 0-9.665 4.373c-3.342 8.864-7.354 21.234-7.492 29.827l-.001.117-.002 4.537-63.255.096-84.81.128c-1.01-4.702-2.45-9.243-4.498-12.103l-.012-.019-71.08-112.15a7.557 7.557 0 0 0-1.04-1.297c-6.658-6.637-6.674-17.454-.036-24.111 6.637-6.658 17.455-6.675 24.053-.097l34.765 35.446a12.484 12.484 0 0 0 13.693 2.821 12.482 12.482 0 0 0 7.783-11.614l-.106-77.282v-.001l-.161-116.85c-.015-9.467 7.418-17.371 16.568-17.621 4.659-.113 9.036 1.582 12.361 4.814a16.92 16.92 0 0 1 5.169 12.204l.197 147.217a7.502 7.502 0 0 0 7.502 7.492h.01a7.502 7.502 0 0 0 7.492-7.511l-.197-147.219v-.001l-.043-28.643a16.934 16.934 0 0 1 4.976-12.063 16.939 16.939 0 0 1 12.049-5.013h.026c4.544 0 8.818 1.766 12.037 4.976a16.942 16.942 0 0 1 5.012 12.049v.039l.24 175.821a7.501 7.501 0 0 0 7.502 7.492h.011a7.502 7.502 0 0 0 7.491-7.511l-.192-140.69c0-.032.005-.063.005-.095-.007-4.554 1.76-8.838 4.976-12.063s7.495-5.005 12.049-5.012h.026c4.544 0 8.817 1.766 12.037 4.976a16.941 16.941 0 0 1 5.012 12.048l.188 140.781a7.501 7.501 0 0 0 7.502 7.492h.01a7.502 7.502 0 0 0 7.492-7.511l-.142-106.731c0-.037.005-.073.005-.111-.014-9.401 7.624-17.061 17.025-17.076h.026c4.544 0 8.818 1.766 12.037 4.976 3.213 3.202 4.989 7.461 5.009 11.915l.002.086-1.628 173.69c-.006.512-.027 1.021-.045 1.531l-.002.054v.004a64.219 64.219 0 0 1-11.38 34.36 7.502 7.502 0 1 0 12.345 8.527 79.166 79.166 0 0 0 13.822-38.713l15.426-11.525c14.041-10.734 16.735-30.889 6.003-44.932zm-339.25 260.683l-115.32-150.91 59.248-40.254L202.731 437.94l-54.402 46.595zm61.477-62.046L109.024 290.604l13.378-10.224 1.395 1.825.012.017 72.553 94.944 26.822 35.1-13.378 10.223zm223.343 2.71h.005l.474-.001 4.099 71.512-189.928.286 3.883-71.524 90.71-.137 90.757-.136zm-59.662-31.75l50.296-.076h.003l1.811-.003.025 16.836-82.992.126-82.992.125-.025-16.835 113.874-.173zm94.466-283.416a17.196 17.196 0 0 1 2.92 2.989c5.702 7.463 4.278 18.17-3.172 23.882l.252-26.871zm-.55 58.668a17.005 17.005 0 0 1 5.41 4.636c5.708 7.469 4.274 18.191-3.195 23.9l-2.501 1.911.286-30.447zm11.608 76.872c-.604 4.514-2.928 8.523-6.482 11.239l-5.994 4.478.322-34.368c3.448.992 6.531 3.069 8.801 6.039a16.933 16.933 0 0 1 3.353 12.612z"/></svg>