<svg xmlns="http://www.w3.org/2000/svg" viewBox="0 0 509.151 509.151"><path d="M452.557 178.058c-5.973-5.973-13.653-9.387-22.187-10.24 15.36-15.36 15.36-40.96 0-56.32-16.213-16.213-38.4-17.067-54.613-1.707-.853-6.827-5.12-14.507-11.093-20.48a41.645 41.645 0 0 0-3.535-3.141l8.655-12.219c12.8-17.92 8.533-42.667-9.387-55.467-8.533-6.827-19.627-9.387-29.013-7.68-10.24 1.707-19.627 7.68-26.453 17.067-2.56-8.533-6.827-15.36-13.653-20.48-17.92-12.8-42.667-8.533-55.467 9.387l-64.48 92.789a54.84 54.84 0 0 0-4.64-2.336c-4.267-1.707-9.387-2.56-11.947-3.413-2.554-.479-4.868-.629-6.961-.54-8.989-21.373-26.857-38.464-46.799-43.833-3.413-.853-6.827-1.707-11.947-1.707-14.507-.853-19.627 7.68-21.333 10.24-3.413 3.413-3.413 5.12-1.707 21.333 1.707 21.333 6.827 64.853 2.56 102.4 0 1.707-1.707 42.667 2.56 76.8L59.17 284.724c-19.753 28.807-18.859 67.136 3.434 94.322.22 19.971 7.882 39.874 23.019 55.011l55.467 55.467c15.36 12.8 35.84 19.627 56.32 19.627 14.507 0 28.16-2.56 40.96-10.24 1.707-.853 4.267-1.707 5.973-2.56 2.804-1.402 5.608-3.057 8.272-4.271 1.439-.023 3.371-.21 5.797-1.682.146-.008.293-.021.437-.021 12.8-.853 34.987-9.387 55.467-29.867l11.947-11.947 36.693-36.693.853-.853 66.56-66.56c15.36-15.36 15.36-40.96 0-56.32-5.973-5.973-13.653-10.24-22.187-11.093l44.373-42.667c15.362-15.359 15.362-40.959.002-56.319zM249.463 26.164c7.68-11.093 21.333-13.653 31.573-5.973 5.12 3.413 7.68 9.387 7.68 16.213 0 7.215-1.838 14.427-5.498 20.61a8.402 8.402 0 0 0-2.182 2.43l-17.067 25.6c-2.56 4.267-1.707 9.387 2.56 11.947 1.707.853 3.413 1.707 5.12 1.707 2.56 0 5.12-1.707 6.827-4.267l15.125-22.687a9.08 9.08 0 0 0 1.089-1.207l23.893-33.28c4.267-5.973 9.387-9.387 15.36-10.24s11.947.853 17.067 4.267c10.24 6.827 12.8 21.333 5.973 31.573l-10.795 15.777a38.083 38.083 0 0 0-9.685-1.27c-.893 0-1.786.044-2.678.109-9.705.357-19.089 4.592-26.335 11.838L206.133 190.668c4.77-25.15-3.947-53.009-21.051-70.473l64.381-94.031zm-176.64 268.8l13.653-19.627c1.707-1.707 1.707-3.413 1.707-5.973-5.12-33.28-2.56-75.947-2.56-75.947 4.267-38.4 0-83.627-2.56-104.96 0-4.267-.853-8.533-.853-11.093.853-1.707 1.707-2.56 5.973-2.56 3.413 0 5.973 0 8.533.853 14.507 3.413 29.013 17.067 35.84 34.133l-.853.853c-.133.08-.263.159-.388.238-.628.395-1.156.782-1.606 1.218-2.363 2.283-2.753 6.009-4.833 19.878-.853 21.333-4.267 64.853-14.507 100.693 0 1.707-9.387 40.96-11.093 75.947L85.623 322.27l-.853.853c-8.533 8.533-15.36 18.773-18.773 30.72-7.68-18.772-5.974-40.959 6.826-58.879zm366.08-73.386L316.877 340.191c-3.413 3.413-3.413 8.533 0 11.947 3.413 3.413 8.533 3.413 11.947 0l56.32-52.053c9.387-8.533 23.893-8.533 32.427 0 8.533 9.387 8.533 23.893 0 32.427l-65.707 65.707-.853.853-37.547 37.547-11.947 11.947c-16.17 16.17-32.332 22.839-40.868 24.924-1.154-.32-2.359-.407-3.505-.178-8.533 1.707-11.947 0-28.16-9.387-4.267-1.707-9.387-.853-11.947 3.413-1.707 4.267-.853 9.387 3.413 11.947 3.55 2.088 6.636 3.917 9.429 5.495-26.286 12.344-57.415 8.839-76.842-8.055L97.57 421.258c-23.893-23.893-23.893-63.147 0-87.04l.601-.601c-.618 10.32.586 21.673 8.786 33.027 1.707 2.56 4.267 3.413 6.827 3.413s4.267-.853 5.973-1.707c3.413-2.56 4.267-8.533 1.707-11.947-7.68-10.24-5.973-20.48-5.12-31.573 0-4.267.853-9.387.853-13.653 1.707-33.28 11.093-75.093 11.093-75.093 10.24-36.693 13.653-81.92 15.36-103.253 0-4.267.853-8.533.853-11.093.853-.853 2.56-1.707 5.973-.853s5.12 1.707 7.68 2.56c17.472 7.596 32.899 32.775 30.661 58.078a50.97 50.97 0 0 1-1.648 8.482v.853l-4.267 24.747c-.16.8-.23 1.57-.216 2.304.001.065.009.127.011.192l-4.062 12.864c-1.707 5.12.853 9.387 5.12 11.093.853.853 1.707.853 2.56.853 3.413 0 6.827-2.56 8.533-5.973l5.12-16.213 119.467-119.467c.361-.361.739-.706 1.124-1.042 7.086-4.445 15.538-5.134 22.77-1.518h.853a9.17 9.17 0 0 0 5.253.456 22.92 22.92 0 0 1 2.427 2.104c10.24 10.24 9.387 23.04-1.707 34.133l-64.853 64.853-44.373 46.933c-3.413 3.413-3.413 8.533 0 11.947 1.707 1.707 4.267 2.56 5.973 2.56 2.56 0 4.267-.853 5.973-2.56l44.373-46.933 87.04-88.747c11.947-11.947 24.747-7.68 32.427 0 8.533 9.387 8.533 23.893 0 32.427l-21.333 21.333-66.56 66.56v.001l-29.013 28.159c-3.413 3.413-3.413 8.533 0 11.947 1.707 1.707 3.413 2.56 5.973 2.56s4.267-.853 5.973-2.56l29.013-28.16.001-.001 66.559-66.559c5.12-5.12 23.04-8.533 31.573 0 8.536 9.387 8.536 23.893.002 32.427z"/></svg>